<?xml version="1.0" encoding="utf-8"?>
<!-- Generator: Adobe Illustrator 16.0.0, SVG Export Plug-In . SVG Version: 6.00 Build 0)  -->
<!DOCTYPE svg PUBLIC "-//W3C//DTD SVG 1.1//EN" "http://www.w3.org/Graphics/SVG/1.1/DTD/svg11.dtd">
<svg version="1.1" id="图层_3" xmlns="http://www.w3.org/2000/svg" xmlns:xlink="http://www.w3.org/1999/xlink" x="0px" y="0px"
	 width="192px" height="192px" viewBox="0 0 192 192" enable-background="new 0 0 192 192" xml:space="preserve">
<line fill="none" x1="19" y1="73.362" x2="178.469" y2="73.362"/>
<path fill="none" d="M47.735,76.083h51v51h-51V76.083z"/>
<path fill="none" d="M71,69h97v97H71V69z"/>
<line fill="none" x1="18" y1="79.583" x2="177.469" y2="79.583"/>
<linearGradient id="SVGID_1_" gradientUnits="userSpaceOnUse" x1="95.9995" y1="20" x2="95.9995" y2="172.0005">
	<stop  offset="0" style="stop-color:#FDE08D"/>
	<stop  offset="1" style="stop-color:#FBBC05"/>
</linearGradient>
<path fill="url(#SVGID_1_)" d="M160.75,20H31.25C25.035,20,20,25.035,20,31.25v129.5c0,6.216,5.034,11.25,11.25,11.25h129.5
	c6.217,0,11.25-5.034,11.25-11.25V31.25C172,25.035,166.967,20,160.75,20z"/>
<g>
	<path fill="#FFFFFF" d="M92.528,120.5H59.163v-6.522L74.565,96.56c2.299-2.709,3.933-5.003,4.901-6.881
		c0.967-1.878,1.451-3.603,1.451-5.174c0-2.049-0.512-3.688-1.537-4.918s-2.562-1.844-4.61-1.844c-2.164,0-3.837,0.786-5.021,2.356
		c-1.184,1.571-1.776,3.563-1.776,5.977h-9.699l-0.068-0.205c-0.114-4.417,1.343-8.157,4.371-11.219s7.092-4.594,12.192-4.594
		c5.1,0,9.061,1.304,11.885,3.911c2.823,2.607,4.235,6.107,4.235,10.501c0,2.983-0.792,5.703-2.374,8.162
		c-1.583,2.458-4.309,5.863-8.179,10.211l-8.196,9.836l0.068,0.17h20.32V120.5z"/>
	<path fill="#FFFFFF" d="M127.909,101.99h5.602v7.718h-5.602V120.5h-9.972v-10.792H97.686l-0.479-5.977l20.628-32.956h10.074V101.99
		z M106.258,101.99h11.68V83.924l-0.205-0.034l-1.024,2.22L106.258,101.99z"/>
</g>
</svg>
