<?xml version="1.0" standalone="no"?><!DOCTYPE svg PUBLIC "-//W3C//DTD SVG 1.1//EN" "http://www.w3.org/Graphics/SVG/1.1/DTD/svg11.dtd">
<svg viewBox="0 0 101 103" version="1.1" xmlns="http://www.w3.org/2000/svg" p-id="3226" xmlns:xlink="http://www.w3.org/1999/xlink" width="37.435240643871275" height="37.43513448421827">
    <g style="left: -3041.45px; top: 234.59px; width: 0px; height: 0px;"> <path fill="rgb(255, 0, 0)" stroke="rgb(255, 102, 102)" stroke-width="2" d="M 52 12 C 8.37 2.569 -17.74 66.602 14.43 88.851 C 18.31 91.536 18.31 91.536 24.51 94.058 C 52.25 105.357 90.51 97.011 96.35 66.931 C 97.14 63.042 97.14 63.042 97.21 57.805 C 97.58 32.803 81.62 12.417 56.96 11.912" tag="nod"></path> <path fill="none" stroke="rgb(0, 0, 0)" stroke-width="2" d="M 31 23 C 42.43 25.123 56.04 35.155 63 26" tag="nod"></path> <path fill="none" stroke="rgb(0, 0, 0)" stroke-width="4" d="M 45 22 C 57.37 20.34 57.63 -7.376 69.09 3.031" tag="nod"></path> <path fill="rgb(255, 255, 254)" stroke="rgb(255, 255, 255)" stroke-width="1" d="M 85 47 C 83.078 56.179 72.55 58.915 81.432 59.007 C 83.465 59.002 83.465 59.002 84.848 58.102 C 89.829 55.737 89.311 47.604 82 48" tag="nod"></path> </g></svg>