<?xml version="1.0" encoding="utf-8"?>
<!-- Generator: Adobe Illustrator 16.0.0, SVG Export Plug-In . SVG Version: 6.00 Build 0)  -->
<!DOCTYPE svg PUBLIC "-//W3C//DTD SVG 1.1//EN" "http://www.w3.org/Graphics/SVG/1.1/DTD/svg11.dtd">
<svg version="1.1" id="图层_3" xmlns="http://www.w3.org/2000/svg" xmlns:xlink="http://www.w3.org/1999/xlink" x="0px" y="0px"
	 width="192px" height="192px" viewBox="0 0 192 192" enable-background="new 0 0 192 192" xml:space="preserve">
<path fill="#FBBC05" d="M8.125,43.625v104.75c0,6.216,5.034,11.25,11.25,11.25h153.25c6.215,0,11.25-5.034,11.25-11.25V43.625
	c0-6.215-5.035-11.25-11.25-11.25H19.375C13.159,32.375,8.125,37.41,8.125,43.625z"/>
<rect x="20" y="43.5" fill="#34A853" width="152.5" height="105.5"/>
<rect x="20" y="43.5" fill="#388E3C" width="152.5" height="9.167"/>
<path fill="#FFFFFF" d="M93.691,129.413c-15.439,0-28-12.561-28-28c0-15.439,12.561-28,28-28c15.439,0,28,12.561,28,28
	C121.691,116.853,109.131,129.413,93.691,129.413z M93.691,77.026c-13.447,0-24.387,10.94-24.387,24.387
	c0,13.447,10.94,24.387,24.387,24.387c13.447,0,24.387-10.939,24.387-24.387C118.078,87.966,107.139,77.026,93.691,77.026z"/>
</svg>
