<?xml version="1.0" encoding="utf-8"?>
<!-- Generator: Adobe Illustrator 16.0.0, SVG Export Plug-In . SVG Version: 6.00 Build 0)  -->
<!DOCTYPE svg PUBLIC "-//W3C//DTD SVG 1.1//EN" "http://www.w3.org/Graphics/SVG/1.1/DTD/svg11.dtd">
<svg version="1.1" id="图层_3" xmlns="http://www.w3.org/2000/svg" xmlns:xlink="http://www.w3.org/1999/xlink" x="0px" y="0px"
	 width="192px" height="192px" viewBox="0 0 192 192" enable-background="new 0 0 192 192" xml:space="preserve">
<path fill="#FBBC05" d="M8.125,43.625v104.75c0,6.216,5.034,11.25,11.25,11.25h153.25c6.215,0,11.25-5.034,11.25-11.25V43.625
	c0-6.215-5.035-11.25-11.25-11.25H19.375C13.16,32.375,8.125,37.41,8.125,43.625z"/>
<rect x="20" y="43.5" fill="#34A853" width="152.5" height="105.5"/>
<rect x="20" y="43.5" fill="#388E3C" width="152.5" height="9.167"/>
<g>
	<g>
		<path fill="#FFFFFF" d="M112.113,97.504v4.196H80.387v-4.196H112.113z"/>
	</g>
	<g>
		<path fill="#FFFFFF" d="M98.173,90.096h-3.957V73.752h-4.093V70.72l8.05-0.707V90.096z"/>
	</g>
	<g>
		<path fill="#FFFFFF" d="M103.084,128.001H89.799v-2.597l6.133-6.936c0.916-1.078,1.566-1.992,1.951-2.739
			c0.385-0.748,0.578-1.435,0.578-2.061c0-0.815-0.204-1.469-0.612-1.958c-0.407-0.489-1.02-0.734-1.835-0.734
			c-0.862,0-1.528,0.313-2,0.938c-0.471,0.625-0.707,1.419-0.707,2.38h-3.862l-0.027-0.082c-0.045-1.759,0.535-3.247,1.74-4.467
			c1.206-1.219,2.824-1.829,4.855-1.829c2.03,0,3.607,0.52,4.731,1.558c1.124,1.037,1.687,2.432,1.687,4.181
			c0,1.188-0.315,2.271-0.945,3.25c-0.631,0.979-1.716,2.334-3.257,4.065l-3.263,3.916l0.027,0.068h8.091V128.001z"/>
	</g>
</g>
</svg>
