<?xml version="1.0" encoding="utf-8"?>
<!-- Generator: Adobe Illustrator 16.0.0, SVG Export Plug-In . SVG Version: 6.00 Build 0)  -->
<!DOCTYPE svg PUBLIC "-//W3C//DTD SVG 1.1//EN" "http://www.w3.org/Graphics/SVG/1.1/DTD/svg11.dtd">
<svg version="1.1" id="图层_3" xmlns="http://www.w3.org/2000/svg" xmlns:xlink="http://www.w3.org/1999/xlink" x="0px" y="0px"
	 width="192px" height="192px" viewBox="0 0 192 192" enable-background="new 0 0 192 192" xml:space="preserve">
<path fill="#FBBC05" d="M8.125,43.625v104.75c0,6.215,5.034,11.25,11.25,11.25h153.25c6.215,0,11.25-5.035,11.25-11.25V43.625
	c0-6.215-5.035-11.25-11.25-11.25H19.375C13.159,32.375,8.125,37.41,8.125,43.625z"/>
<rect x="20" y="43.5" fill="#34A853" width="152.5" height="105.5"/>
<rect x="20" y="43.5" fill="#388E3C" width="152.5" height="9.167"/>
<g>
	<path fill="#FFFFFF" d="M59.26,108.313h0.149l9.319-26.736h9.494v36.279h-7.276V93.089l-0.149-0.025l-8.97,24.792h-4.934
		l-8.97-24.842l-0.149,0.025v24.817h-7.275V81.578h9.543L59.26,108.313z"/>
	<path fill="#FFFFFF" d="M100.248,117.856c-0.266-0.613-0.494-1.263-0.685-1.943c-0.192-0.682-0.329-1.379-0.411-2.094
		c-0.747,1.313-1.736,2.401-2.965,3.266c-1.23,0.863-2.691,1.295-4.386,1.295c-2.824,0-5-0.726-6.528-2.181
		c-1.528-1.453-2.292-3.435-2.292-5.942c0-2.641,1.018-4.688,3.052-6.142s5.004-2.18,8.908-2.18h4.087v-2.144
		c0-1.296-0.341-2.3-1.022-3.015c-0.681-0.714-1.693-1.071-3.04-1.071c-1.179,0-2.088,0.286-2.728,0.859s-0.959,1.357-0.959,2.354
		h-7.002l-0.05-0.149c-0.117-2.276,0.876-4.24,2.978-5.893c2.101-1.653,4.846-2.479,8.235-2.479c3.24,0,5.86,0.814,7.861,2.442
		c2.003,1.628,3.004,3.961,3.004,7.001v11.138c0,1.263,0.095,2.45,0.286,3.563c0.19,1.113,0.493,2.218,0.909,3.313H100.248z
		 M93.596,112.998c1.262,0,2.392-0.315,3.389-0.946c0.996-0.632,1.677-1.362,2.043-2.193v-3.813H94.94
		c-1.544,0-2.712,0.382-3.5,1.146c-0.79,0.765-1.185,1.702-1.185,2.815c0,0.914,0.295,1.641,0.886,2.181
		C91.73,112.728,92.548,112.998,93.596,112.998z"/>
	<path fill="#FFFFFF" d="M120.48,84.293v6.603h4.561v5.108h-4.561v13.729c0,1.046,0.221,1.794,0.661,2.242s1.018,0.673,1.731,0.673
		c0.382,0,0.715-0.021,0.997-0.063c0.281-0.041,0.606-0.112,0.972-0.212l0.598,5.258c-0.731,0.249-1.44,0.436-2.13,0.561
		c-0.689,0.124-1.441,0.187-2.255,0.187c-2.509,0-4.439-0.688-5.794-2.068c-1.354-1.379-2.03-3.563-2.03-6.553V96.005h-3.938v-5.108
		h3.938v-6.603H120.48z"/>
	<path fill="#FFFFFF" d="M136.628,94.311c0.847-1.229,1.886-2.188,3.114-2.878c1.229-0.689,2.592-1.034,4.087-1.034
		c2.807,0,5.013,0.934,6.615,2.803c1.603,1.869,2.404,4.754,2.404,8.659v15.996h-7.276v-16.046c0-2.094-0.336-3.576-1.009-4.448
		c-0.672-0.872-1.682-1.308-3.026-1.308c-1.113,0-2.081,0.179-2.903,0.536c-0.823,0.357-1.491,0.867-2.006,1.531v19.734h-7.276
		v-38.87h7.276V94.311z"/>
</g>
</svg>
