<?xml version="1.0" encoding="utf-8"?>
<!-- Generator: Adobe Illustrator 16.0.0, SVG Export Plug-In . SVG Version: 6.00 Build 0)  -->
<!DOCTYPE svg PUBLIC "-//W3C//DTD SVG 1.1//EN" "http://www.w3.org/Graphics/SVG/1.1/DTD/svg11.dtd">
<svg version="1.1" id="图层_3" xmlns="http://www.w3.org/2000/svg" xmlns:xlink="http://www.w3.org/1999/xlink" x="0px" y="0px"
	 width="192px" height="192px" viewBox="0 0 192 192" enable-background="new 0 0 192 192" xml:space="preserve">
<path fill="#FBBC05" d="M8.125,42.875v104.75c0,6.215,5.034,11.25,11.25,11.25h153.25c6.215,0,11.25-5.035,11.25-11.25V42.875
	c0-6.215-5.035-11.25-11.25-11.25H19.375C13.159,31.625,8.125,36.66,8.125,42.875z"/>
<rect x="20" y="42.75" fill="#34A853" width="152.5" height="105.5"/>
<rect x="20" y="42.75" fill="#388E3C" width="152.5" height="9.167"/>
<g>
	<rect x="76.897" y="100.83" fill="#FFFFFF" width="55.211" height="3.852"/>
	<rect x="76.897" y="76.406" fill="#FFFFFF" width="3.259" height="28.276"/>
	<g>
		<path fill="#FFFFFF" d="M100.342,96.55h-8.625v-1.687l3.982-4.502c0.594-0.7,1.017-1.293,1.267-1.779
			c0.25-0.485,0.376-0.932,0.376-1.338c0-0.529-0.133-0.953-0.398-1.271c-0.265-0.317-0.662-0.477-1.191-0.477
			c-0.559,0-0.992,0.203-1.298,0.609s-0.459,0.921-0.459,1.545h-2.507l-0.018-0.053c-0.029-1.142,0.347-2.109,1.13-2.9
			c0.783-0.792,1.833-1.187,3.152-1.187s2.342,0.336,3.072,1.011c0.729,0.674,1.094,1.579,1.094,2.714
			c0,0.771-0.203,1.475-0.613,2.11c-0.408,0.636-1.113,1.516-2.113,2.64l-2.119,2.543l0.018,0.044h5.252V96.55z"/>
	</g>
	<g>
		<path fill="#FFFFFF" d="M69.237,98.327h-8.625v-1.687l3.982-4.502c0.594-0.7,1.017-1.293,1.267-1.779
			c0.25-0.485,0.375-0.932,0.375-1.338c0-0.529-0.133-0.953-0.397-1.271c-0.265-0.317-0.662-0.477-1.191-0.477
			c-0.56,0-0.992,0.203-1.298,0.609c-0.306,0.406-0.459,0.921-0.459,1.545h-2.507l-0.018-0.053c-0.03-1.142,0.347-2.109,1.13-2.9
			s1.833-1.187,3.152-1.187c1.318,0,2.342,0.337,3.072,1.011c0.73,0.674,1.095,1.579,1.095,2.715c0,0.771-0.205,1.474-0.614,2.109
			c-0.409,0.636-1.114,1.516-2.114,2.64l-2.119,2.543l0.018,0.044h5.253V98.327z"/>
	</g>
	<g>
		<path fill="#FFFFFF" d="M100.098,124.1h-8.149v-1.594l3.762-4.254c0.562-0.661,0.961-1.222,1.197-1.681s0.354-0.88,0.354-1.264
			c0-0.5-0.125-0.9-0.375-1.201c-0.25-0.3-0.625-0.45-1.126-0.45c-0.528,0-0.937,0.192-1.227,0.575
			c-0.288,0.384-0.433,0.871-0.433,1.46h-2.37l-0.017-0.05c-0.027-1.079,0.328-1.992,1.068-2.74
			c0.739-0.748,1.732-1.122,2.978-1.122s2.214,0.318,2.903,0.955s1.033,1.491,1.033,2.565c0,0.728-0.192,1.393-0.579,1.993
			c-0.386,0.601-1.052,1.432-1.998,2.494l-2.001,2.402l0.016,0.042h4.963V124.1z"/>
	</g>
	<g>
		<path fill="#FFFFFF" d="M117.131,116.557c0.613,0,1.069-0.159,1.366-0.478c0.299-0.319,0.447-0.768,0.447-1.346
			c0-0.483-0.156-0.885-0.469-1.204c-0.313-0.318-0.75-0.478-1.31-0.478c-0.472,0-0.869,0.145-1.19,0.434
			c-0.322,0.289-0.482,0.658-0.482,1.106h-2.495l-0.019-0.053c-0.036-1.01,0.354-1.841,1.168-2.496
			c0.814-0.655,1.821-0.982,3.019-0.982c1.333,0,2.392,0.314,3.178,0.942c0.784,0.629,1.177,1.53,1.177,2.704
			c0,0.59-0.17,1.131-0.51,1.624c-0.339,0.492-0.804,0.88-1.394,1.164c0.673,0.253,1.192,0.639,1.558,1.154
			c0.366,0.517,0.549,1.141,0.549,1.872c0,1.181-0.427,2.108-1.278,2.783c-0.854,0.676-1.946,1.014-3.279,1.014
			c-1.174,0-2.201-0.318-3.08-0.955c-0.879-0.639-1.305-1.532-1.274-2.683l0.018-0.053h2.514c0,0.483,0.169,0.889,0.509,1.217
			c0.339,0.327,0.777,0.491,1.314,0.491c0.589,0,1.067-0.174,1.434-0.522c0.365-0.348,0.549-0.788,0.549-1.318
			c0-0.679-0.171-1.182-0.514-1.509c-0.342-0.327-0.844-0.491-1.504-0.491h-1.426v-1.938H117.131z"/>
	</g>
	<g>
		<path fill="#FFFFFF" d="M117.931,83.552c0.5,0,0.963,0.045,1.39,0.137c0.426,0.091,0.848,0.225,1.266,0.401l-0.459,1.888
			c-0.399-0.135-0.758-0.236-1.076-0.304c-0.317-0.068-0.686-0.102-1.103-0.102c-0.753,0-1.36,0.288-1.822,0.864
			c-0.461,0.577-0.692,1.379-0.692,2.409v0.415c0.341-0.335,0.748-0.595,1.222-0.781c0.474-0.185,1.002-0.278,1.584-0.278
			c1.1,0,1.958,0.39,2.576,1.169c0.617,0.779,0.926,1.795,0.926,3.048c0,1.288-0.399,2.335-1.199,3.141s-1.844,1.209-3.132,1.209
			c-1.341,0-2.434-0.459-3.278-1.377c-0.844-0.917-1.266-2.173-1.266-3.767v-2.691c0-1.629,0.478-2.934,1.435-3.913
			C115.256,84.042,116.466,83.552,117.931,83.552z M117.383,90.152c-0.464,0-0.859,0.074-1.187,0.225
			c-0.326,0.15-0.58,0.357-0.763,0.622v0.688c0,0.988,0.181,1.753,0.543,2.294c0.361,0.541,0.84,0.812,1.434,0.812
			c0.535,0,0.961-0.225,1.279-0.675c0.317-0.45,0.477-1.016,0.477-1.698c0-0.706-0.161-1.26-0.481-1.663
			S117.931,90.152,117.383,90.152z"/>
	</g>
</g>
</svg>
