<?xml version="1.0" encoding="utf-8"?>
<!-- Generator: Adobe Illustrator 16.0.0, SVG Export Plug-In . SVG Version: 6.00 Build 0)  -->
<!DOCTYPE svg PUBLIC "-//W3C//DTD SVG 1.1//EN" "http://www.w3.org/Graphics/SVG/1.1/DTD/svg11.dtd">
<svg version="1.1" id="图层_3" xmlns="http://www.w3.org/2000/svg" xmlns:xlink="http://www.w3.org/1999/xlink" x="0px" y="0px"
	 width="192px" height="192px" viewBox="0 0 192 192" enable-background="new 0 0 192 192" xml:space="preserve">
<path fill="#FBBC05" d="M8.125,43.625v104.75c0,6.215,5.034,11.25,11.25,11.25h153.25c6.215,0,11.25-5.035,11.25-11.25V43.625
	c0-6.215-5.035-11.25-11.25-11.25H19.375C13.159,32.375,8.125,37.41,8.125,43.625z"/>
<rect x="20" y="43.5" fill="#34A853" width="152.5" height="105.5"/>
<path opacity="0.5" fill="#FFFFFF" d="M96.25,61.39c-20.339,0-36.833,16.495-36.833,36.833s16.495,36.834,36.833,36.834
	c20.338,0,36.833-16.496,36.833-36.834S116.588,61.39,96.25,61.39z"/>
<rect x="20" y="43.5" fill="#388E3C" width="152.5" height="9.167"/>
<path fill="#FFFFFF" d="M96.167,61.39c-20.339,0-36.833,16.495-36.833,36.833s16.495,36.834,36.833,36.834
	c20.338,0,36.833-16.496,36.833-36.834S116.505,61.39,96.167,61.39z M129.192,91.942c-3.104,3.38-9.262,6.21-17.038,7.882
	c0.01-0.533,0.027-1.059,0.027-1.592c0-14.324-3.559-26.727-8.746-32.821C116.479,68.293,126.684,78.765,129.192,91.942z
	 M96.167,64.592c6.05,0,12.812,14.378,12.812,33.63c0,0.748-0.027,1.479-0.045,2.207c-3.985,0.658-8.282,1.031-12.767,1.031
	s-8.781-0.373-12.768-1.031c-0.018-0.729-0.045-1.459-0.045-2.207C83.354,78.97,90.117,64.592,96.167,64.592L96.167,64.592z
	 M88.897,65.402c-5.186,6.095-8.744,18.497-8.744,32.821c0,0.535,0.018,1.068,0.025,1.594c-7.767-1.674-13.924-4.494-17.037-7.884
	C65.65,78.765,75.855,68.293,88.897,65.402L88.897,65.402z M62.536,98.223c0-0.854,0.045-1.689,0.107-2.527
	c3.967,3.266,10.133,5.846,17.651,7.377c0.703,12.232,4.013,22.58,8.603,27.971C73.845,127.707,62.536,114.264,62.536,98.223z
	 M96.167,131.854c-5.463,0-11.494-11.752-12.607-28.203c3.941,0.605,8.168,0.951,12.607,0.951s8.675-0.338,12.607-0.951
	C107.662,120.102,101.63,131.854,96.167,131.854z M103.436,131.043c4.591-5.391,7.9-15.738,8.604-27.971
	c7.518-1.531,13.684-4.111,17.651-7.377c0.063,0.838,0.106,1.674,0.106,2.527C129.797,114.264,118.489,127.707,103.436,131.043z"/>
</svg>
