<?xml version="1.0" encoding="utf-8"?>
<!-- Generator: Adobe Illustrator 16.0.0, SVG Export Plug-In . SVG Version: 6.00 Build 0)  -->
<!DOCTYPE svg PUBLIC "-//W3C//DTD SVG 1.1//EN" "http://www.w3.org/Graphics/SVG/1.1/DTD/svg11.dtd">
<svg version="1.1" id="图层_3" xmlns="http://www.w3.org/2000/svg" xmlns:xlink="http://www.w3.org/1999/xlink" x="0px" y="0px"
	 width="192px" height="192px" viewBox="0 0 192 192" enable-background="new 0 0 192 192" xml:space="preserve">
<path fill="#FBBC05" d="M8.125,43.625v104.75c0,6.215,5.034,11.25,11.25,11.25h153.25c6.215,0,11.25-5.035,11.25-11.25V43.625
	c0-6.215-5.035-11.25-11.25-11.25H19.375C13.159,32.375,8.125,37.41,8.125,43.625z"/>
<rect x="20" y="43.5" fill="#34A853" width="152.5" height="105.5"/>
<rect x="20" y="43.5" fill="#388E3C" width="152.5" height="9.167"/>
<path fill="#FFFFFF" d="M110.586,127.871c-14.709,0-26.635-11.926-26.635-26.635s11.926-26.635,26.635-26.635
	c14.708,0,26.635,11.926,26.635,26.635S125.294,127.871,110.586,127.871z M110.586,76.82c-13.484,0-24.415,10.931-24.415,24.416
	c0,13.482,10.931,24.414,24.415,24.414c13.482,0,24.414-10.932,24.414-24.414C135,87.751,124.068,76.82,110.586,76.82L110.586,76.82
	z"/>
<path fill="#FFFFFF" d="M79.512,127.871c-14.708,0-26.634-11.926-26.634-26.635s11.925-26.635,26.634-26.635
	c14.708,0,26.634,11.926,26.634,26.635S94.221,127.871,79.512,127.871z M79.512,76.822c-13.483,0-24.414,10.931-24.414,24.415
	c0,13.484,10.931,24.414,24.414,24.414c13.484,0,24.415-10.93,24.415-24.414C103.927,87.752,92.996,76.822,79.512,76.822
	L79.512,76.822z"/>
</svg>
