<?xml version="1.0" encoding="utf-8"?>
<!-- Generator: Adobe Illustrator 16.0.0, SVG Export Plug-In . SVG Version: 6.00 Build 0)  -->
<!DOCTYPE svg PUBLIC "-//W3C//DTD SVG 1.1//EN" "http://www.w3.org/Graphics/SVG/1.1/DTD/svg11.dtd">
<svg version="1.1" id="图层_3" xmlns="http://www.w3.org/2000/svg" xmlns:xlink="http://www.w3.org/1999/xlink" x="0px" y="0px"
	 width="192px" height="192px" viewBox="0 0 192 192" enable-background="new 0 0 192 192" xml:space="preserve">
<path fill="#FBBC05" d="M8.125,42.875v104.75c0,6.215,5.034,11.25,11.25,11.25h153.25c6.215,0,11.25-5.035,11.25-11.25V42.875
	c0-6.215-5.035-11.25-11.25-11.25H19.375C13.159,31.625,8.125,36.66,8.125,42.875z"/>
<rect x="20" y="42.75" fill="#34A853" width="152.5" height="105.5"/>
<rect x="20" y="42.75" fill="#388E3C" width="152.5" height="9.167"/>
<g>
	<path fill="#FFFFFF" d="M54.839,109.1H40.694v-2.766l6.53-7.384c0.975-1.148,1.667-2.121,2.078-2.917
		c0.41-0.796,0.615-1.527,0.615-2.193c0-0.869-0.217-1.563-0.651-2.085c-0.435-0.521-1.086-0.782-1.955-0.782
		c-0.917,0-1.626,0.333-2.128,0.999c-0.502,0.666-0.753,1.51-0.753,2.534h-4.112l-0.029-0.087c-0.048-1.872,0.569-3.458,1.853-4.756
		c1.284-1.298,3.006-1.947,5.169-1.947c2.162,0,3.841,0.553,5.038,1.658c1.197,1.105,1.795,2.589,1.795,4.452
		c0,1.265-0.335,2.418-1.006,3.46c-0.671,1.043-1.827,2.486-3.467,4.329l-3.475,4.17l0.029,0.072h8.614V109.1z"/>
	<path fill="#FFFFFF" d="M71.778,96.706c1.004,0,1.75-0.261,2.237-0.781c0.487-0.521,0.731-1.255,0.731-2.201
		c0-0.791-0.256-1.447-0.767-1.969c-0.512-0.521-1.226-0.782-2.143-0.782c-0.772,0-1.421,0.237-1.948,0.709
		c-0.526,0.473-0.789,1.076-0.789,1.81h-4.083l-0.029-0.087c-0.058-1.65,0.579-3.011,1.911-4.083
		c1.332-1.071,2.977-1.607,4.937-1.607c2.181,0,3.914,0.514,5.197,1.542s1.926,2.502,1.926,4.423c0,0.965-0.278,1.851-0.833,2.656
		c-0.555,0.807-1.315,1.44-2.28,1.904c1.1,0.415,1.95,1.045,2.548,1.89c0.599,0.845,0.898,1.865,0.898,3.062
		c0,1.931-0.698,3.448-2.092,4.554s-3.183,1.657-5.364,1.657c-1.921,0-3.601-0.521-5.039-1.563
		c-1.438-1.042-2.133-2.505-2.085-4.387l0.029-0.087h4.111c0,0.792,0.277,1.455,0.833,1.991c0.555,0.535,1.272,0.803,2.15,0.803
		c0.965,0,1.747-0.284,2.345-0.854c0.598-0.569,0.897-1.289,0.897-2.157c0-1.11-0.28-1.933-0.839-2.469
		c-0.56-0.536-1.38-0.804-2.461-0.804h-2.331v-3.171H71.778z"/>
	<path fill="#FFFFFF" d="M89.803,99.805L91.02,88.02h11.756v3.388h-8.296L93.9,96.33c0.396-0.29,0.893-0.528,1.491-0.717
		s1.25-0.292,1.955-0.312c1.959-0.028,3.477,0.577,4.553,1.817s1.615,2.98,1.615,5.219c0,2.066-0.585,3.76-1.752,5.082
		c-1.168,1.322-2.954,1.983-5.357,1.983c-1.939,0-3.601-0.514-4.98-1.542c-1.38-1.027-2.046-2.439-1.998-4.234l0.029-0.072
		l4.068-0.188c0,0.879,0.266,1.563,0.796,2.056c0.531,0.492,1.226,0.738,2.085,0.738c1.004,0,1.735-0.327,2.193-0.984
		c0.459-0.656,0.688-1.593,0.688-2.809s-0.251-2.184-0.752-2.902c-0.502-0.72-1.245-1.079-2.23-1.079
		c-0.811,0-1.431,0.149-1.86,0.449c-0.43,0.299-0.735,0.704-0.919,1.216L89.803,99.805z"/>
	<path fill="#FFFFFF" d="M128.04,91.277c-2.384,2.789-4.006,5.301-4.864,7.535c-0.859,2.235-1.289,4.795-1.289,7.681v2.606h-4.228
		v-2.606c0-2.934,0.538-5.609,1.614-8.027s2.643-4.814,4.698-7.188h-10.757V88.02h14.825V91.277z"/>
	<path fill="#FFFFFF" d="M142.895,109.1h-4.228v-3.706h4.228V109.1z"/>
	<path fill="#FFFFFF" d="M151.523,109.1h-4.228v-3.706h4.228V109.1z"/>
	<path fill="#FFFFFF" d="M160.152,109.1h-4.228v-3.706h4.228V109.1z"/>
</g>
</svg>
