<?xml version="1.0" encoding="utf-8"?>
<!-- Generator: Adobe Illustrator 16.0.0, SVG Export Plug-In . SVG Version: 6.00 Build 0)  -->
<!DOCTYPE svg PUBLIC "-//W3C//DTD SVG 1.1//EN" "http://www.w3.org/Graphics/SVG/1.1/DTD/svg11.dtd">
<svg version="1.1" id="图层_3" xmlns="http://www.w3.org/2000/svg" xmlns:xlink="http://www.w3.org/1999/xlink" x="0px" y="0px"
	 width="192px" height="192px" viewBox="0 0 192 192" enable-background="new 0 0 192 192" xml:space="preserve">
<path fill="#849AA5" d="M20.034,31.25V96h75.932V20H31.284C25.068,20,20.034,25.035,20.034,31.25z"/>
<path fill="#4C6067" d="M171.966,96V30.032C171.357,24.391,166.589,20,160.784,20H95.966v76H171.966z"/>
<path fill="#FBBC05" d="M171.966,161.969V96h-76v76h64.818C166.589,172,171.357,167.609,171.966,161.969z"/>
<path fill="#6A8692" d="M20.034,96v64.75c0,6.216,5.034,11.25,11.25,11.25h64.682V96H20.034z"/>
<path fill="#FFFFFF" d="M69.611,122.389c-0.938-0.937-2.469-0.937-3.404,0L58,130.592l-8.206-8.203
	c-0.934-0.937-2.468-0.937-3.402,0c-0.936,0.936-0.936,2.466,0,3.404l8.205,8.205l-8.205,8.206c-0.936,0.937-0.936,2.47,0,3.407
	c0.936,0.936,2.469,0.936,3.402,0L58,137.403l8.206,8.208c0.936,0.936,2.468,0.936,3.404,0c0.934-0.936,0.934-2.47,0-3.407
	l-8.207-8.206l8.207-8.205C70.544,124.854,70.544,123.323,69.611,122.389L69.611,122.389z"/>
<g>
	<path fill="#FFFFFF" d="M69.011,53.472h-9.12v-9.119c0-1.04-0.851-1.891-1.89-1.891c-1.04,0-1.891,0.851-1.891,1.891v9.119h-9.12
		c-1.038,0-1.891,0.852-1.891,1.891c0,1.04,0.853,1.89,1.891,1.89h9.12v9.121c0,1.039,0.851,1.89,1.891,1.89
		c1.039,0,1.89-0.851,1.89-1.89v-9.119h9.12c1.039,0,1.89-0.851,1.89-1.89C70.901,54.326,70.05,53.472,69.011,53.472L69.011,53.472z
		"/>
	<g>
		<path fill="#F9F9F9" d="M69,69.926H47c-1.039,0-1.889,0.852-1.889,1.891c0,1.037,0.85,1.889,1.889,1.889h22
			c1.039,0,1.89-0.852,1.89-1.889C70.89,70.778,70.039,69.926,69,69.926L69,69.926z"/>
		<path display="none" fill="#F9F9F9" d="M55.93,79.908c0,1.143,0.927,2.071,2.071,2.071c1.144,0,2.07-0.928,2.07-2.071
			s-0.927-2.071-2.07-2.071C56.857,77.837,55.93,78.765,55.93,79.908"/>
		<path display="none" fill="#F9F9F9" d="M55.93,63.728c0,1.144,0.927,2.07,2.071,2.07c1.144,0,2.07-0.927,2.07-2.07
			c0-1.144-0.927-2.071-2.07-2.071C56.857,61.656,55.93,62.583,55.93,63.728"/>
	</g>
</g>
<g>
	<path fill="#FFFFFF" d="M134.109,147.896h-16.471v-3.22l7.604-8.599c1.135-1.337,1.941-2.47,2.419-3.396
		c0.478-0.928,0.717-1.779,0.717-2.555c0-1.011-0.253-1.82-0.759-2.428c-0.506-0.606-1.265-0.91-2.276-0.91
		c-1.067,0-1.894,0.388-2.479,1.163c-0.584,0.775-0.876,1.76-0.876,2.95H117.2l-0.034-0.101c-0.056-2.181,0.663-4.026,2.158-5.538
		s3.501-2.268,6.019-2.268s4.474,0.644,5.867,1.931s2.091,3.015,2.091,5.184c0,1.473-0.391,2.815-1.172,4.029
		s-2.127,2.895-4.038,5.041l-4.046,4.855l0.033,0.084h10.031V147.896z"/>
	<path fill="#FFFFFF" d="M151.576,138.758h2.765v3.811h-2.765v5.327h-4.923v-5.327h-9.998l-0.235-2.95l10.183-16.27h4.974V138.758z
		 M140.888,138.758h5.766v-8.918l-0.102-0.017l-0.506,1.096L140.888,138.758z"/>
</g>
<g>
	<path fill="#FFFFFF" d="M133.133,48.638c0.021,1.769,1.473,3.185,3.242,3.164c1.768-0.021,3.186-1.472,3.162-3.241
		c-0.021-1.753-1.446-3.163-3.199-3.165c-1.774,0.005-3.211,1.446-3.205,3.22C133.133,48.622,133.133,48.631,133.133,48.638z"/>
	<polygon fill="#FFFFFF" points="120.188,58.423 120.188,61.493 152.482,61.493 152.482,58.423 	"/>
	<path fill="#FFFFFF" d="M133.133,71.276c-0.003,1.769,1.43,3.205,3.199,3.208c1.768,0.001,3.205-1.431,3.208-3.2
		c0.001-1.771-1.431-3.205-3.2-3.208c0,0,0,0-0.002,0c-1.763,0.011-3.19,1.438-3.205,3.202V71.276L133.133,71.276z"/>
</g>
</svg>
