<?xml version="1.0" encoding="utf-8"?>
<!-- Generator: Adobe Illustrator 16.0.0, SVG Export Plug-In . SVG Version: 6.00 Build 0)  -->
<!DOCTYPE svg PUBLIC "-//W3C//DTD SVG 1.1//EN" "http://www.w3.org/Graphics/SVG/1.1/DTD/svg11.dtd">
<svg version="1.1" id="图层_3" xmlns="http://www.w3.org/2000/svg" xmlns:xlink="http://www.w3.org/1999/xlink" x="0px" y="0px"
	 width="192px" height="192px" viewBox="0 0 192 192" enable-background="new 0 0 192 192" xml:space="preserve">
<path fill="#FBBC05" d="M8.125,43.625v104.75c0,6.216,5.034,11.25,11.25,11.25h153.25c6.215,0,11.25-5.034,11.25-11.25V43.625
	c0-6.215-5.035-11.25-11.25-11.25H19.375C13.159,32.375,8.125,37.41,8.125,43.625z"/>
<rect x="20" y="43.5" fill="#34A853" width="152.5" height="105.5"/>
<rect x="20" y="43.5" fill="#388E3C" width="152.5" height="9.167"/>
<g>
	<path fill="#FFFFFF" d="M61.226,111.177c2.083,0,3.79-0.786,5.121-2.357c1.331-1.573,1.996-3.767,1.996-6.583v-2.721
		c-0.945,1.216-2.064,2.133-3.356,2.75c-1.292,0.617-2.681,0.926-4.166,0.926c-3.916,0-6.987-1.273-9.215-3.819
		s-3.341-6.008-3.341-10.387c0-4.224,1.321-7.725,3.963-10.502c2.643-2.777,6.019-4.167,10.126-4.167
		c4.243,0,7.706,1.428,10.386,4.282s4.021,6.809,4.021,11.862v11.342c0,4.86-1.461,8.719-4.383,11.573
		c-2.921,2.854-6.639,4.281-11.153,4.281c-1.466,0-2.975-0.159-4.527-0.477c-1.553-0.319-3.014-0.767-4.384-1.347l1.418-6.104
		c1.215,0.502,2.401,0.868,3.559,1.1C58.448,111.061,59.76,111.177,61.226,111.177z M62.238,96.999c1.369,0,2.575-0.279,3.617-0.839
		s1.87-1.311,2.488-2.256v-4.918c0-2.642-0.54-4.663-1.62-6.062c-1.081-1.398-2.527-2.097-4.34-2.097
		c-1.697,0-3.066,0.786-4.108,2.357c-1.042,1.572-1.562,3.506-1.562,5.801c0,2.412,0.473,4.35,1.418,5.815
		C59.075,96.267,60.445,96.999,62.238,96.999z"/>
	<path fill="#FFFFFF" d="M81.68,106.315l8.939-9.113l-8.939-9.114l4.976-4.745l8.767,8.969l8.795-8.969l4.977,4.745l-8.94,9.114
		l8.94,9.113l-4.977,4.745l-8.795-8.939l-8.767,8.939L81.68,106.315z"/>
	<path fill="#FFFFFF" d="M126.698,111.177c2.083,0,3.789-0.786,5.12-2.357c1.331-1.573,1.997-3.767,1.997-6.583v-2.721
		c-0.944,1.216-2.063,2.133-3.355,2.75c-1.294,0.617-2.682,0.926-4.168,0.926c-3.915,0-6.986-1.273-9.214-3.819
		c-2.227-2.546-3.341-6.008-3.341-10.387c0-4.224,1.321-7.725,3.964-10.502s6.018-4.167,10.126-4.167
		c4.243,0,7.703,1.428,10.386,4.282c2.682,2.854,4.022,6.809,4.022,11.862v11.342c0,4.86-1.462,8.719-4.385,11.573
		c-2.921,2.854-6.639,4.281-11.152,4.281c-1.467,0-2.975-0.159-4.528-0.477c-1.553-0.319-3.015-0.767-4.382-1.347l1.417-6.104
		c1.215,0.502,2.4,0.868,3.56,1.1C123.921,111.061,125.231,111.177,126.698,111.177z M127.712,96.999
		c1.368,0,2.573-0.279,3.616-0.839c1.04-0.56,1.871-1.311,2.487-2.256v-4.918c0-2.642-0.54-4.663-1.62-6.062
		c-1.082-1.398-2.526-2.097-4.341-2.097c-1.695,0-3.066,0.786-4.106,2.357c-1.043,1.572-1.563,3.506-1.563,5.801
		c0,2.412,0.471,4.35,1.417,5.815C124.547,96.267,125.917,96.999,127.712,96.999z"/>
</g>
</svg>
