<?xml version="1.0" encoding="utf-8"?>
<!-- Generator: Adobe Illustrator 16.0.0, SVG Export Plug-In . SVG Version: 6.00 Build 0)  -->
<!DOCTYPE svg PUBLIC "-//W3C//DTD SVG 1.1//EN" "http://www.w3.org/Graphics/SVG/1.1/DTD/svg11.dtd">
<svg version="1.1" id="图层_3" xmlns="http://www.w3.org/2000/svg" xmlns:xlink="http://www.w3.org/1999/xlink" x="0px" y="0px"
	 width="192px" height="192px" viewBox="0 0 192 192" enable-background="new 0 0 192 192" xml:space="preserve">
<path fill="#FBBC05" d="M8.125,43.625v104.75c0,6.216,5.034,11.25,11.25,11.25h153.25c6.215,0,11.25-5.034,11.25-11.25V43.625
	c0-6.215-5.035-11.25-11.25-11.25H19.375C13.159,32.375,8.125,37.41,8.125,43.625z"/>
<rect x="20" y="43.5" fill="#34A853" width="152.5" height="105.5"/>
<rect x="20" y="43.5" fill="#388E3C" width="152.5" height="9.167"/>
<g>
	<g>
		<path fill="#FFFFFF" d="M95.689,117.334c-0.229-0.528-0.426-1.085-0.59-1.671s-0.281-1.186-0.354-1.8
			c-0.643,1.128-1.492,2.064-2.549,2.807c-1.058,0.742-2.314,1.114-3.771,1.114c-2.428,0-4.299-0.625-5.613-1.875
			c-1.314-1.25-1.971-2.953-1.971-5.11c0-2.271,0.875-4.031,2.625-5.281s4.303-1.875,7.66-1.875h3.513v-1.842
			c0-1.114-0.293-1.979-0.878-2.593c-0.586-0.614-1.457-0.921-2.614-0.921c-1.015,0-1.796,0.246-2.346,0.738
			c-0.55,0.494-0.825,1.168-0.825,2.025h-6.021l-0.043-0.129c-0.1-1.957,0.753-3.646,2.561-5.067
			c1.807-1.421,4.167-2.132,7.081-2.132c2.786,0,5.038,0.7,6.759,2.1c1.722,1.399,2.582,3.406,2.582,6.021v9.577
			c0,1.085,0.082,2.106,0.246,3.063s0.425,1.907,0.782,2.85H95.689z M89.969,113.156c1.085,0,2.057-0.271,2.914-0.814
			c0.856-0.543,1.441-1.171,1.756-1.886v-3.278h-3.513c-1.328,0-2.332,0.33-3.01,0.986c-0.679,0.657-1.018,1.465-1.018,2.421
			c0,0.786,0.253,1.411,0.76,1.875S89.069,113.156,89.969,113.156z"/>
	</g>
	<g>
		<path fill="#FFFFFF" d="M108.843,81.806l0.149,1.775c0.412-0.634,0.92-1.126,1.523-1.478c0.603-0.352,1.278-0.527,2.027-0.527
			c1.252,0,2.229,0.403,2.932,1.209c0.703,0.806,1.055,2.079,1.055,3.82v7.595h-3.356v-7.583c0-0.887-0.155-1.515-0.464-1.885
			c-0.31-0.37-0.773-0.556-1.393-0.556c-0.496,0-0.934,0.094-1.311,0.28c-0.379,0.188-0.689,0.445-0.934,0.773v8.97h-3.346V81.806
			H108.843z"/>
	</g>
</g>
</svg>
