<?xml version="1.0" encoding="utf-8"?>
<!-- Generator: Adobe Illustrator 16.0.0, SVG Export Plug-In . SVG Version: 6.00 Build 0)  -->
<!DOCTYPE svg PUBLIC "-//W3C//DTD SVG 1.1//EN" "http://www.w3.org/Graphics/SVG/1.1/DTD/svg11.dtd">
<svg version="1.1" id="图层_3" xmlns="http://www.w3.org/2000/svg" xmlns:xlink="http://www.w3.org/1999/xlink" x="0px" y="0px"
	 width="192px" height="192px" viewBox="0 0 192 192" enable-background="new 0 0 192 192" xml:space="preserve">
<path fill="#FBBC05" d="M8.125,43.625v104.75c0,6.216,5.034,11.25,11.25,11.25h153.25c6.215,0,11.25-5.034,11.25-11.25V43.625
	c0-6.215-5.035-11.25-11.25-11.25H19.375C13.159,32.375,8.125,37.41,8.125,43.625z"/>
<rect x="20" y="43.5" fill="#34A853" width="152.5" height="105.5"/>
<rect x="20" y="43.5" fill="#388E3C" width="152.5" height="9.167"/>
<g>
	<g>
		<path fill="#FFFFFF" d="M60.245,114.477H54.01V88.724h-6.449v-4.778l12.684-1.114V114.477z"/>
	</g>
	<path fill="#FFFFFF" d="M101.938,85.649l-3.995-3.995l-17,17l17,17l3.995-3.995L88.961,98.654L101.938,85.649z"/>
	<g>
		<path fill="#FFFFFF" d="M144.938,114.477h-20.933v-4.092l9.663-10.927c1.442-1.7,2.467-3.139,3.074-4.317
			c0.607-1.178,0.91-2.26,0.91-3.246c0-1.285-0.32-2.313-0.964-3.085c-0.643-0.771-1.606-1.157-2.892-1.157
			c-1.357,0-2.408,0.493-3.15,1.479c-0.742,0.986-1.113,2.236-1.113,3.75h-6.086l-0.043-0.129c-0.07-2.771,0.844-5.117,2.743-7.039
			c1.899-1.92,4.448-2.881,7.649-2.881c3.199,0,5.684,0.818,7.455,2.453c1.771,1.636,2.656,3.832,2.656,6.588
			c0,1.871-0.496,3.578-1.488,5.121c-0.993,1.543-2.703,3.678-5.131,6.406l-5.143,6.17l0.043,0.107h12.748V114.477z"/>
	</g>
</g>
</svg>
