<?xml version="1.0" encoding="utf-8"?>
<!-- Generator: Adobe Illustrator 16.0.0, SVG Export Plug-In . SVG Version: 6.00 Build 0)  -->
<!DOCTYPE svg PUBLIC "-//W3C//DTD SVG 1.1//EN" "http://www.w3.org/Graphics/SVG/1.1/DTD/svg11.dtd">
<svg version="1.1" id="图层_3" xmlns="http://www.w3.org/2000/svg" xmlns:xlink="http://www.w3.org/1999/xlink" x="0px" y="0px"
	 width="192px" height="192px" viewBox="0 0 192 192" enable-background="new 0 0 192 192" xml:space="preserve">
<path fill="#FBBC05" d="M8.125,42.875v104.75c0,6.215,5.034,11.25,11.25,11.25h153.25c6.215,0,11.25-5.035,11.25-11.25V42.875
	c0-6.215-5.035-11.25-11.25-11.25H19.375C13.159,31.625,8.125,36.66,8.125,42.875z"/>
<rect x="20" y="42.75" fill="#34A853" width="152.5" height="105.5"/>
<rect x="20" y="42.75" fill="#388E3C" width="152.5" height="9.167"/>
<g>
	<rect x="63.753" y="128.388" fill="#FFFFFF" width="59.126" height="4.334"/>
	<polygon fill="#FFFFFF" points="131.161,130.555 122.461,121.832 122.461,128.375 107.177,128.375 107.177,132.733 
		122.461,132.733 122.461,139.276 	"/>
</g>
<g>
	<rect x="63.54" y="73.42" fill="#FFFFFF" width="4.334" height="59.126"/>
	<polygon fill="#FFFFFF" points="65.707,65.139 56.984,73.839 63.527,73.839 63.527,89.124 67.886,89.124 67.886,73.839 
		74.429,73.839 	"/>
</g>
<g>
	
		<rect x="79.885" y="100.003" transform="matrix(-0.8788 0.4772 -0.4772 -0.8788 244.2538 142.3069)" fill="#FFFFFF" width="48.342" height="4.335"/>
	<polygon fill="#FFFFFF" points="132.575,86.686 120.767,83.171 123.889,88.921 110.457,96.215 112.537,100.045 125.969,92.752 
		129.091,98.501 	"/>
</g>
</svg>
