<?xml version="1.0" standalone="no"?><!DOCTYPE svg PUBLIC "-//W3C//DTD SVG 1.1//EN" "http://www.w3.org/Graphics/SVG/1.1/DTD/svg11.dtd">
<svg t="1516288885240" class="icon" style="" viewBox="0 0 109 130" version="1.1" xmlns="http://www.w3.org/2000/svg" p-id="1928" xmlns:xlink="http://www.w3.org/1999/xlink" width="1025" height="1024"><path data-v-051c604d="" id="2" d="M 63.52 91.722 c 0.368 -1.433 1.778 -1.646 2.731 -2.281 c 7.792 -5.184 16.169 -9.493 23.545 -15.292 c 19.929 -15.668 21.558 -43.264 3.532 -60.29 C 85.181 6.165 74.943 3.175 64.14 1.479 c -12.939 -2.032 -25.466 -0.474 -37.513 4.338 c -15.209 6.074 -24.879 21.173 -23.345 35.715 c 1.053 9.979 6.394 15.527 16.364 16.999 c 10.245 1.513 16.981 -2.288 20.804 -11.746 c 0.746 -1.847 1.332 -3.771 2.226 -5.542 c 3 -5.94 9.427 -7.953 15.228 -4.868 c 4.811 2.559 6.16 9.274 2.898 14.786 c -1.75 2.956 -4.368 5.078 -7.144 7.036 C 43.05 65.678 32.379 73.077 21.89 80.722 c -6.367 4.641 -12.08 10 -16.872 16.353 c -5.606 7.432 -4.347 16.208 -0.391 23.59 c 3.222 6.013 9.291 7.853 15.635 7.897 c 23.25 0.164 46.502 0.175 69.752 0.024 c 11.063 -0.072 17.568 -6.699 17.8 -17.467 c 0.237 -10.964 -6.31 -18.291 -17.408 -18.838 c -7.982 -0.394 -15.996 -0.136 -23.995 -0.207 C 65.474 92.066 64.453 92.461 63.52 91.722 Z"></path></svg>
