<?xml version="1.0" encoding="utf-8"?>
<!-- Generator: Adobe Illustrator 16.0.0, SVG Export Plug-In . SVG Version: 6.00 Build 0)  -->
<!DOCTYPE svg PUBLIC "-//W3C//DTD SVG 1.1//EN" "http://www.w3.org/Graphics/SVG/1.1/DTD/svg11.dtd">
<svg version="1.1" id="图层_3" xmlns="http://www.w3.org/2000/svg" xmlns:xlink="http://www.w3.org/1999/xlink" x="0px" y="0px"
	 width="192px" height="192px" viewBox="0 0 192 192" enable-background="new 0 0 192 192" xml:space="preserve">
<path fill="#34A853" d="M149.328,8.012L46.543,7.924c-8.059,0-14.665,6.605-14.665,14.709v146.778
	c0,8.104,6.562,14.665,14.665,14.665h102.74c8.104,0,14.665-6.563,14.665-14.665V22.633C163.992,14.53,157.387,8.012,149.328,8.012z
	"/>
<path fill="#FFFFFF" d="M141.973,40.865c-6.076,0-11.009-4.932-11.009-11.01c0-6.077,4.933-11.009,11.009-11.009
	c6.078,0,11.01,4.933,11.01,11.009C152.982,35.932,148.051,40.865,141.973,40.865z"/>
<g enable-background="new    ">
	<path fill="#FFFFFF" d="M97.582,64.506c2.271,0,3.874-0.563,4.812-1.69c0.938-1.126,1.406-2.705,1.406-4.735
		c0-1.892-0.512-3.419-1.535-4.58s-2.541-1.742-4.554-1.742c-1.962,0-3.583,0.606-4.864,1.819c-1.281,1.213-1.923,2.731-1.923,4.554
		h-4.851l-0.077-0.155c-0.087-2.821,0.98-5.229,3.199-7.225s5.058-2.994,8.515-2.994c3.492,0,6.228,0.882,8.206,2.645
		c1.978,1.764,2.968,4.357,2.968,7.78c0,1.754-0.461,3.354-1.381,4.8c-0.921,1.444-2.206,2.572-3.857,3.38
		c1.892,0.757,3.332,1.905,4.321,3.445c0.989,1.54,1.484,3.402,1.484,5.586c0,3.441-1.089,6.138-3.265,8.089
		c-2.176,1.953-5.002,2.929-8.477,2.929c-3.199,0-6.017-0.942-8.45-2.826c-2.435-1.883-3.608-4.374-3.522-7.47l0.052-0.154h4.852
		c0,1.823,0.657,3.358,1.974,4.605c1.316,1.248,3.015,1.871,5.096,1.871c2.064,0,3.69-0.641,4.878-1.922
		c1.187-1.281,1.78-2.955,1.78-5.019c0-2.357-0.547-4.12-1.639-5.29c-1.093-1.17-2.809-1.755-5.147-1.755h-4.181v-3.948H97.582
		L97.582,64.506z"/>
</g>
<g enable-background="new    ">
	<path fill="#FFFFFF" d="M135.636,146.497h-15.551v-2.322l7.861-9.375c1.399-1.697,2.349-3.048,2.848-4.051
		c0.499-1.004,0.748-2.016,0.748-3.036c0-1.158-0.339-2.108-1.016-2.848c-0.676-0.74-1.61-1.109-2.804-1.109
		c-1.479,0-2.606,0.453-3.38,1.358c-0.774,0.906-1.161,2.036-1.161,3.39h-3.269l-0.034-0.104c-0.058-2.041,0.625-3.77,2.047-5.187
		c1.422-1.416,3.354-2.125,5.797-2.125c2.237,0,3.997,0.619,5.282,1.858c1.283,1.238,1.927,2.838,1.927,4.799
		c0,1.319-0.364,2.609-1.093,3.871s-1.838,2.844-3.329,4.748l-6.313,7.396l0.034,0.086h11.404V146.497L135.636,146.497z"/>
</g>
<g enable-background="new    ">
	<path fill="#FFFFFF" d="M64.763,146.497h-3.406v-21.915l-5.453,0.052v-2.615l8.858-0.929L64.763,146.497L64.763,146.497z"/>
</g>
<path fill="#FFFFFF" d="M63,114.716L63,114.716c-0.969-0.969-0.969-2.554,0-3.522l20.038-19.817c0.969-0.969,2.554-0.969,3.522,0
	l0,0c0.969,0.969,0.969,2.555,0,3.523l-20.037,19.816C65.555,115.685,63.97,115.685,63,114.716z"/>
<path fill="#FFFFFF" d="M129.058,114.716L129.058,114.716c0.969-0.969,0.969-2.554,0-3.522l-20.037-19.817
	c-0.969-0.969-2.555-0.969-3.523,0l0,0c-0.969,0.969-0.969,2.555,0,3.523l20.037,19.816
	C126.503,115.685,128.089,115.685,129.058,114.716z"/>
</svg>
