<?xml version="1.0" encoding="utf-8"?>
<!-- Generator: Adobe Illustrator 16.0.0, SVG Export Plug-In . SVG Version: 6.00 Build 0)  -->
<!DOCTYPE svg PUBLIC "-//W3C//DTD SVG 1.1//EN" "http://www.w3.org/Graphics/SVG/1.1/DTD/svg11.dtd">
<svg version="1.1" id="图层_3" xmlns="http://www.w3.org/2000/svg" xmlns:xlink="http://www.w3.org/1999/xlink" x="0px" y="0px"
	 width="192px" height="192px" viewBox="0 0 192 192" enable-background="new 0 0 192 192" xml:space="preserve">
<line fill="none" x1="19" y1="73.362" x2="178.469" y2="73.362"/>
<path fill="none" d="M47.735,76.083h51v51h-51V76.083z"/>
<path fill="none" d="M71,69h97v97H71V69z"/>
<line fill="none" x1="18" y1="79.583" x2="177.469" y2="79.583"/>
<path fill="#4285F4" d="M160.75,20H31.25C25.035,20,20,25.035,20,31.25v129.5c0,6.216,5.034,11.25,11.25,11.25h129.5
	c6.217,0,11.25-5.034,11.25-11.25V31.25C172,25.035,166.967,20,160.75,20z"/>
<path opacity="0.1" d="M171,160.75v-59.788l-38.352-38.52l-3.836,67.361l-68.208,0.994L101.978,172h57.772
	C165.967,172,171,166.966,171,160.75z"/>
<path fill="#FFFFFF" d="M134.107,124.114V68.042c0-5.522-4.477-10-10.002-10H68.033c-5.522,0-9.996,4.478-9.996,10v56.066
	c0,5.521,4.475,9.999,9.996,9.999h56.069C129.631,134.115,134.107,129.637,134.107,124.114L134.107,124.114z M80.47,123.681
	c-4.136,0-7.501-3.358-7.501-7.501c0-4.134,3.365-7.499,7.501-7.499c4.141,0,7.5,3.363,7.5,7.499
	C87.971,120.322,84.615,123.681,80.47,123.681L80.47,123.681z M80.47,103.679c-4.136,0-7.501-3.365-7.501-7.499
	c0-4.145,3.365-7.502,7.501-7.502c4.141,0,7.5,3.36,7.5,7.502C87.971,100.319,84.615,103.679,80.47,103.679L80.47,103.679z
	 M80.47,83.674c-4.136,0-7.501-3.359-7.501-7.5c0-4.137,3.365-7.502,7.501-7.502c4.141,0,7.5,3.365,7.5,7.502
	C87.971,80.315,84.615,83.674,80.47,83.674L80.47,83.674z M110.475,123.681c-4.136,0-7.5-3.358-7.5-7.501
	c0-4.134,3.364-7.499,7.5-7.499c4.145,0,7.5,3.363,7.5,7.499C117.975,120.322,114.619,123.681,110.475,123.681L110.475,123.681z
	 M110.475,103.679c-4.136,0-7.5-3.365-7.5-7.499c0-4.145,3.364-7.502,7.5-7.502c4.145,0,7.5,3.36,7.5,7.502
	C117.975,100.319,114.619,103.679,110.475,103.679L110.475,103.679z M110.475,83.674c-4.136,0-7.5-3.359-7.5-7.5
	c0-4.137,3.364-7.502,7.5-7.502c4.145,0,7.5,3.365,7.5,7.502C117.975,80.315,114.619,83.674,110.475,83.674L110.475,83.674z"/>
</svg>
